<?xml version="1.0" standalone="no"?>
<!DOCTYPE svg PUBLIC "-//W3C//DTD SVG 20010904//EN"
 "http://www.w3.org/TR/2001/REC-SVG-20010904/DTD/svg10.dtd">
<svg version="1.0" xmlns="http://www.w3.org/2000/svg"
 width="337.000000pt" height="26.000000pt" viewBox="0 0 337.000000 26.000000"
 preserveAspectRatio="xMidYMid meet">
<metadata>
Created by potrace 1.16, written by Peter Selinger 2001-2019
</metadata>
<g transform="translate(0.000000,26.000000) scale(0.100000,-0.100000)"
fill="#000000" stroke="none">
<path d="M2867 204 c-1 -1 -20 -4 -43 -6 -23 -3 -47 -9 -54 -13 -8 -5 -11 -4
-6 3 4 7 -3 9 -21 7 -16 -2 -28 -4 -28 -5 0 0 -94 -3 -210 -6 -115 -3 -213 -9
-218 -13 -4 -4 -42 -6 -85 -5 -50 1 -68 -1 -52 -6 23 -7 24 -8 3 -9 -12 -1
-25 4 -28 9 -3 6 -17 10 -31 10 -14 0 -23 -3 -21 -7 3 -5 -67 -7 -155 -7 -91
1 -154 -2 -146 -7 9 -6 9 -9 1 -9 -6 0 -15 5 -19 11 -4 7 -39 8 -113 3 -58 -4
-137 -7 -176 -8 -38 -1 -76 -5 -84 -10 -10 -6 -12 -6 -7 3 6 9 -19 10 -106 6
-62 -3 -173 -6 -245 -7 -73 0 -131 -4 -128 -8 3 -4 53 -8 112 -9 60 0 138 -3
174 -7 45 -4 69 -3 73 5 4 6 12 11 17 11 6 0 8 -4 5 -8 -2 -4 11 -9 31 -10 21
-2 40 3 44 10 7 10 9 10 9 1 0 -7 11 -13 25 -13 14 0 25 4 25 8 0 4 9 8 19 8
11 0 17 -4 15 -8 -3 -4 8 -7 23 -7 82 1 484 -11 521 -16 24 -2 42 0 42 5 0 6
5 10 11 10 5 0 7 -5 4 -10 -4 -7 32 -9 110 -7 64 2 118 0 121 -4 2 -4 49 -7
103 -6 55 1 98 4 96 7 -2 3 7 5 20 5 13 0 23 -2 22 -5 -3 -9 17 -8 42 1 13 5
26 7 29 4 3 -2 -5 -8 -18 -13 -16 -6 0 -9 55 -10 43 0 101 -4 128 -7 35 -5 48
-4 43 4 -4 6 -2 11 3 11 6 0 11 -4 11 -10 0 -15 30 -12 30 3 0 6 5 4 11 -5 11
-20 39 -25 39 -7 0 5 -6 7 -12 3 -7 -4 -4 2 6 14 21 24 36 31 17 8 -9 -10 -7
-17 6 -27 11 -9 14 -10 9 -2 -4 7 -2 21 3 30 7 12 10 13 11 4 0 -8 6 -11 16
-7 8 3 12 2 9 -4 -3 -6 -1 -10 4 -10 6 0 11 5 11 11 0 6 7 8 15 5 9 -3 34 1
57 8 22 8 46 12 53 10 7 -3 16 -1 19 4 3 5 20 8 38 6 34 -4 68 10 56 21 -4 4
-28 8 -55 10 -26 2 -48 4 -48 6 0 1 -9 3 -20 5 -60 10 -72 13 -98 23 -16 6
-33 9 -38 5 -5 -3 -9 0 -9 6 0 7 -7 9 -16 6 -8 -3 -13 -2 -10 3 5 7 -40 11
-47 5z"/>
</g>
</svg>
